<svg id="Layer_1" data-name="Layer 1" xmlns="http://www.w3.org/2000/svg" viewBox="0 0 1095.07 934.32"><path d="M545.91,600.93,308.43,15.35h45.65L546.84,499.27,739.49,15.35h43.9Z"/><path d="M546,258.87,440.75,15.52h44l62.52,151,61.85-151h41.93Z"/><path d="M79.8,837.89l-61.39-142H44.1L80.59,784l36.09-88.07H141.2Z"/><path d="M194.23,695.88h23.93l53.35,137.3H247.77l-12.55-32.56H177.16l-12.55,32.56H140.88ZM185.6,779h41.19l-20.6-53.55Z"/><path d="M318,695.88l68.65,94.54V695.88h23.53v137.3H389l-68.65-94.34v94.34H296.8V695.88Z"/><rect x="489.88" y="811.74" width="184.36" height="21.69"/><path d="M490,796.27v-100h33.17c28.64,0,49.43,21,49.43,50s-20.79,50-49.43,50Zm33.42-20.51c18.1,0,27.56-14.82,27.56-29.46s-9.44-29.46-27.56-29.46H511.32v58.92Z"/><path d="M634.86,797.9c-23,0-39.13-15.87-39.13-38.59v-63h21.33v61c0,7.51,2.31,20.11,17.8,20.11,11.31,0,17.8-7.33,17.8-20.11v-61H674v63C674,782,657.9,797.9,634.86,797.9Z"/><path d="M797.47,837.89l-61.39-142h25.69L798.25,784l36.09-88.07h24.52Z"/><path d="M895.12,695.88h23.54v137.3H895.12Z"/><path d="M981.22,695.88l68.65,94.54V695.88h23.54v137.3h-21.18l-68.65-94.34v94.34H960V695.88Z"/><path d="M50.07,885.48a14.91,14.91,0,0,0-11.33-4.81c-8.93,0-15,7.82-15,16.57s6.11,16.58,15,16.58a16.21,16.21,0,0,0,11.86-5.46L54,911.77a21,21,0,0,1-15.22,6.75c-11.87,0-20.33-9.39-20.33-21.25S26.87,876,38.74,876a19.75,19.75,0,0,1,14.74,6.25Z"/><path d="M89.36,876.67H94l16,41.12h-5.16l-4.29-11.1H82.84l-4.29,11.1H73.27ZM84.61,902H98.7l-7-18.27Z"/><path d="M138,876.67l22,33v-33H175v41.12h-5.12l-22-32.9v32.9h-4.94V876.67Z"/><path d="M192.18,876.67H203c8.46,0,13.22,4.35,13.22,11.19a8.5,8.5,0,0,1-4.65,8c.59.11,6.88,1.94,6.88,10.11,0,7.16-5.28,11.74-13.39,11.74H192.18Zm11.64,17.75c4.64,0,7.45-2.53,7.45-6.52s-2.8-6.53-7.45-6.53h-6.7v13Zm9.69,11.63c0-3.89-2.59-7-8.46-7h-7.93v14.09h7.93C210.92,913.1,213.51,909.92,213.51,906.05Z"/><path d="M247.83,894.36h17.4v4.7h-17.4v14H267v4.7H242.87V876.67h23.77v4.7H247.83Z"/><path d="M292.42,876.67h10.7c8.17,0,13.74,4.83,13.74,12.17,0,9.78-8.86,11.56-10,11.74l11.38,17.21h-5.93L301.18,901h-3.82v16.77h-4.94Zm19.51,12.17c0-4.53-3-7.47-8.52-7.47h-6.05v14.92h6.05c5.53,0,8.52-2.94,8.52-7.45Z"/><path d="M342.52,876.67H353.2c8.17,0,13.75,4.83,13.75,12.17,0,9.78-8.87,11.56-10,11.74l11.39,17.21h-5.92L351.27,901h-3.81v16.77h-4.94ZM362,888.84c0-4.53-3-7.47-8.53-7.47h-6v14.92h6C359,896.29,362,893.35,362,888.84Z"/><path d="M404.43,876.67H409l16,41.12h-5.22l-4.2-11.1H397.84l-4.28,11.1h-5.29ZM399.68,902h14.1l-7-18.27Z"/><path d="M516.88,919,505.11,886.6,493.24,919l-15.8-42.3H483l10.4,28.5,10.1-28.5H507l10,28.5,10.46-28.5h5.23Z"/><path d="M556.23,876.67h4.92v41.12h-4.92Z"/><path d="M594.33,876.67l22,33v-33h4.93v41.12h-5.11l-22-32.9v32.9h-4.94V876.67Z"/><path d="M653.47,894.36h17.38v4.7H653.47v14h19.14v4.7H648.54V876.67h23.77v4.7H653.47Z"/><path d="M698.06,876.67h10.68c8.17,0,13.75,4.83,13.75,12.17,0,9.78-8.87,11.56-10,11.74l11.39,17.21h-5.92L706.81,901H703v16.77h-4.94Zm19.49,12.17c0-4.53-3-7.47-8.51-7.47h-6v14.92h6c5.56,0,8.6-2.94,8.6-7.45Z"/><path d="M757,901.65l-13.86-25h5.59l11,20.21,10.86-20.21h5.23l-13.87,25v16.14h-4.93Z"/><path d="M840.81,881.37H829v-4.7h28.55v4.7h-11.8v36.42h-4.93Z"/><path d="M917.58,897.24c0,11.86-8.39,21.25-20.33,21.25s-20.31-9.39-20.31-21.25S885.4,876,897.25,876,917.58,885.37,917.58,897.24Zm-5.28,0c0-8.75-6.06-16.57-15-16.57s-15,7.82-15,16.57,6,16.58,15,16.58,15-7.84,15-16.58Z"/><path d="M967.25,876.67h4.86v26c0,9.34-5.59,15.85-15,15.85s-15-6.51-15-15.85v-26h4.94v25.44c0,6.64,2.93,11.69,10,11.69s10.05-5,10.05-11.69Z"/><path d="M999.42,876.67h10.68c8.17,0,13.75,4.83,13.75,12.17,0,9.78-8.87,11.56-10,11.74l11.44,17.21h-5.93L1008.22,901h-3.82v16.77h-4.94Zm19.49,12.17c0-4.53-3-7.47-8.51-7.47h-6v14.92h6c5.52,0,8.51-2.94,8.51-7.45Z"/><path d="M1060.44,899.28c-6-2.79-11.29-5.51-11.29-12.5,0-4.82,4-10.81,11.88-10.81a14.63,14.63,0,0,1,11.68,6l-3.7,3a10.36,10.36,0,0,0-8-4.28c-4.53,0-7,3.18-7,6.11,0,4.2,3.53,5.82,9.16,8.39,6.29,2.88,10.22,5.59,10.22,12.17s-5.59,11.18-12.73,11.18a14.3,14.3,0,0,1-13.11-8.57l4.12-2.47s2.47,6.34,9,6.34c3.93,0,7.69-2.23,7.69-6.46S1065,901.41,1060.44,899.28Z"/></svg>