<svg id="Layer_1" data-name="Layer 1" xmlns="http://www.w3.org/2000/svg" viewBox="0 0 1868.74 954.84"><defs><style>.cls-1{fill:#fff;}</style></defs><path class="cls-1" d="M933.62,599.93,696.14,14.35h45.64L934.54,498.27,1127.19,14.35h43.91Z"/><path class="cls-1" d="M933.66,257.87,828.45,14.52h44l62.52,151,61.85-151h41.93Z"/><path class="cls-1" d="M116.12,944,8.45,694.88H53.51l64,154.47,63.3-154.47h43Z"/><path class="cls-1" d="M316.82,694.88h42l93.57,240.81H410.72l-22-57.11H286.88l-22,57.11H223.25ZM301.68,840.74h72.24l-36.13-93.92Z"/><path class="cls-1" d="M533.88,694.88l120.4,175.81V694.88h41.27V935.69H658.4L538,770.23V935.69H496.71V694.88Z"/><rect class="cls-1" x="835.35" y="898.09" width="323.34" height="38.04"/><path class="cls-1" d="M835.54,871V695.57h58.18c50.23,0,86.69,36.83,86.69,87.69S944,871,893.72,871Zm58.61-36c31.75,0,48.34-26,48.34-51.67s-16.56-51.67-48.34-51.67H873V835Z"/><path class="cls-1" d="M1089.62,873.81c-40.34,0-68.63-27.83-68.63-67.68V695.64h37.41v107c0,13.18,4,35.27,31.22,35.27,19.84,0,31.22-12.85,31.22-35.27v-107h37.41V806.13C1158.25,846,1130,873.81,1089.62,873.81Z"/><path class="cls-1" d="M1374.82,944,1267.15,694.9h45.06l64,154.46,63.29-154.46h43Z"/><path class="cls-1" d="M1546.08,694.88h41.29V935.69h-41.29Z"/><path class="cls-1" d="M1697.09,694.88l120.4,175.81V694.88h41.29V935.69h-37.15l-120.4-175.46V935.69h-41.29V694.88Z"/></svg>