<svg id="Layer_1" data-name="Layer 1" xmlns="http://www.w3.org/2000/svg" viewBox="0 0 1055 1345.9"><defs><style>.cls-1{fill:#fff;}</style></defs><path class="cls-1" d="M157.8,1235l-48.7-112.7h20.4l28.9,69.9,28.6-69.9h19.5Z"/><path class="cls-1" d="M248.5,1122.3h19l42.3,108.9H291l-10-25.8H235l-10,25.8H206.2Zm-6.8,66h32.7l-16.3-42.5Z"/><path class="cls-1" d="M346.7,1122.3l54.5,75v-75h18.7v108.9H403l-54.5-74.8v74.8H329.8V1122.3Z"/><rect class="cls-1" x="483.1" y="1214.2" width="146.2" height="17.2"/><path class="cls-1" d="M483.1,1201.9v-79.3h26.3c22.7,0,39.2,16.7,39.2,39.7s-16.5,39.7-39.2,39.7H483.1Zm26.6-16.2c14.4,0,21.9-11.8,21.9-23.4s-7.5-23.4-21.9-23.4h-9.6v46.7h9.6Z"/><path class="cls-1" d="M598.1,1203.2c-18.2,0-31-12.6-31-30.6v-50H584V1171c0,6,1.8,16,14.1,16,9,0,14.1-5.8,14.1-16v-48.4h16.9v50C629.1,1190.7,616.3,1203.2,598.1,1203.2Z"/><path class="cls-1" d="M727.1,1235l-48.7-112.6h20.4l28.9,69.9,28.6-69.9h19.5Z"/><path class="cls-1" d="M804.5,1122.3h18.7v108.9H804.5Z"/><path class="cls-1" d="M872.8,1122.3l54.5,75v-75H946v108.9H929.2l-54.5-74.8v74.8H856V1122.3Z"/><path class="cls-1" d="M527.5,1055.2,109.1,23.4h80.4L529.1,876.1,868.6,23.4H946Z"/><path class="cls-1" d="M527.5,452.5,342.1,23.7h77.6l110.2,266,109-266h73.9Z"/><path class="cls-1" d="M134.2,1272.7a11.8,11.8,0,0,0-9-3.8c-7.1,0-11.9,6.2-11.9,13.1s4.8,13.2,11.9,13.2a13,13,0,0,0,9.4-4.3l2.7,2.7a16.82,16.82,0,0,1-12.1,5.4c-9.4,0-16.1-7.5-16.1-16.9s6.7-16.9,16.1-16.9a15.37,15.37,0,0,1,11.7,5Z"/><path class="cls-1" d="M175.3,1265.7h3.6l12.7,32.6h-4.1l-3.4-8.8h-14l-3.4,8.8h-4.2Zm-3.7,20.1h11.2l-5.5-14.5Z"/><path class="cls-1" d="M203.9,1265.7l17.5,26.1v-26.1h3.9v32.6h-4.1l-17.5-26.1v26.1h-3.9v-32.6Z"/><path class="cls-1" d="M246.9,1265.7h8.6c6.7,0,10.5,3.4,10.5,8.9a6.8,6.8,0,0,1-3.7,6.4c.5.1,5.5,1.5,5.5,8,0,5.7-4.2,9.3-10.6,9.3H247Zm9.2,14.1c3.7,0,5.9-2,5.9-5.2s-2.2-5.2-5.9-5.2h-5.3v10.3Zm7.7,9.2c0-3.1-2.1-5.5-6.7-5.5h-6.3v11.2h6.3C261.8,1294.6,263.8,1292.1,263.8,1289Z"/><path class="cls-1" d="M291,1279.8h13.8v3.7H291v11.1h15.2v3.7H287.1v-32.6H306v3.7H291Z"/><path class="cls-1" d="M326.4,1265.7h8.5c6.5,0,10.9,3.8,10.9,9.6,0,7.8-7,9.2-8,9.3l9,13.7h-4.7l-8.8-13.3h-3v13.3h-3.9Zm15.5,9.7c0-3.6-2.4-5.9-6.8-5.9h-4.8v11.8h4.8c4.4,0,6.8-2.3,6.8-5.9Z"/><path class="cls-1" d="M366.2,1265.7h8.5c6.5,0,10.9,3.8,10.9,9.6,0,7.8-7,9.2-8,9.3l9,13.7h-4.7l-8.8-13.3h-3v13.3h-3.9Zm15.4,9.7c0-3.6-2.4-5.9-6.8-5.9H370v11.8h4.8C379.2,1281.3,381.6,1279,381.6,1275.4Z"/><path class="cls-1" d="M415.3,1265.7h3.6l12.7,32.6h-4.1l-3.3-8.8H410l-3.4,8.8h-4.2Zm-3.8,20.1h11.2l-5.5-14.5Z"/><path class="cls-1" d="M504.5,1299.3l-9.3-25.7-9.4,25.7-12.5-33.6h4.4l8.3,22.6,8-22.6h2.8l7.9,22.6,8.3-22.6h4.1Z"/><path class="cls-1" d="M535.7,1265.7h3.9v32.6h-3.9Z"/><path class="cls-1" d="M565.9,1265.7l17.5,26.1v-26.1h3.9v32.6h-4l-17.5-26.1v26.1h-3.9v-32.6Z"/><path class="cls-1" d="M612.8,1279.8h13.8v3.7H612.8v11.1H628v3.7H608.9v-32.6h18.9v3.7H612.9v10.4Z"/><path class="cls-1" d="M648.2,1265.7h8.5c6.5,0,10.9,3.8,10.9,9.6,0,7.8-7,9.2-8,9.3l9,13.7h-4.7l-8.8-13.3h-3v13.3h-3.9Zm15.5,9.7c0-3.6-2.4-5.9-6.8-5.9h-4.8v11.8h4.8c4.4,0,6.8-2.3,6.8-5.9Z"/><path class="cls-1" d="M694.9,1285.5l-11-19.8h4.4l8.8,16,8.6-16h4.1l-11,19.8v12.8H695Z"/><path class="cls-1" d="M761.4,1269.5H752v-3.7h22.6v3.7h-9.4v28.9h-3.9Z"/><path class="cls-1" d="M822.3,1282c0,9.4-6.7,16.9-16.1,16.9s-16.1-7.5-16.1-16.9,6.7-16.9,16.1-16.9S822.3,1272.6,822.3,1282Zm-4.2,0c0-6.9-4.8-13.1-11.9-13.1s-11.9,6.2-11.9,13.1,4.8,13.2,11.9,13.2,11.9-6.2,11.9-13.2Z"/><path class="cls-1" d="M861.7,1265.7h3.9v20.6c0,7.4-4.4,12.6-11.9,12.6s-11.9-5.2-11.9-12.6v-20.6h3.9v20.2c0,5.3,2.3,9.3,8,9.3s8-4,8-9.3Z"/><path class="cls-1" d="M887.3,1265.7h8.5c6.5,0,10.9,3.8,10.9,9.6,0,7.8-7,9.2-8,9.3l9.1,13.7H903l-8.8-13.3h-3v13.3h-3.9Zm15.4,9.7c0-3.6-2.4-5.9-6.8-5.9h-4.8v11.8h4.8c4.4,0,6.8-2.3,6.8-5.9Z"/><path class="cls-1" d="M935.7,1283.7c-4.8-2.2-9-4.4-9-9.9a9,9,0,0,1,9.4-8.6,11.7,11.7,0,0,1,9.3,4.7l-2.9,2.4a8.36,8.36,0,0,0-6.3-3.4c-3.6,0-5.5,2.5-5.5,4.8,0,3.3,2.8,4.6,7.3,6.7,5,2.3,8.1,4.4,8.1,9.6s-4.4,8.9-10.1,8.9a11.4,11.4,0,0,1-10.4-6.8l3.3-2s2,5,7.1,5c3.1,0,6.1-1.8,6.1-5.1C941.9,1286.7,939.3,1285.3,935.7,1283.7Z"/></svg>