<?xml version="1.0" encoding="utf-8"?>
<!-- Generator: Adobe Illustrator 26.1.0, SVG Export Plug-In . SVG Version: 6.00 Build 0)  -->
<svg version="1.0" id="Layer_1" xmlns="http://www.w3.org/2000/svg" xmlns:xlink="http://www.w3.org/1999/xlink" x="0px" y="0px"
	 viewBox="0 0 100 100" style="enable-background:new 0 0 100 100;" xml:space="preserve">
<style type="text/css">
	.st0{fill:#FFFFFF;}
</style>
<path class="st0" d="M29.6,10c2.8,0,5-2.2,5-5s-2.2-5-5-5s-5,2.2-5,5S26.9,10,29.6,10z M31.6,12h-3.9C24,12,21,14.9,21,18.6
	c0,0.8,0.6,1.4,1.4,1.4h14.5c0.8,0,1.4-0.6,1.4-1.4C38.2,14.9,35.2,12,31.6,12z M39.5,12h-3.1c1.9,1.6,3.1,3.9,3.1,6.6
	c0,0.5-0.2,1-0.4,1.4h5.8c0.7,0,1.3-0.6,1.3-1.4C46.2,15,43.2,12,39.5,12z M37.7,10c2.4,0,4.4-2,4.4-4.4s-2-4.4-4.4-4.4
	c-1,0-1.9,0.3-2.6,0.9C35.6,3,35.9,4,35.9,5c0,1.4-0.5,2.7-1.2,3.7C35.4,9.5,36.5,10,37.7,10z"/>
<path class="st0" d="M10,20C4.5,20,0,15.5,0,10S4.5,0,10,0s10,4.5,10,10S15.5,20,10,20z M8.7,10.1c0,0.3,0.2,0.6,0.4,0.8l3.9,2.6
	c0.4,0.3,1.1,0.2,1.3-0.2c0.3-0.4,0.2-1.1-0.2-1.4l-3.5-2.3v-5c0-0.5-0.4-1-1-1c-0.5,0-1,0.4-1,1L8.7,10.1z"/>
<path class="st0" d="M55.5,18h-2.3v-4.4c3.3-0.6,5.3-3.1,5-6l-0.6-7C57.6,0.3,57.3,0,57,0h-8.7c-0.3,0-0.6,0.3-0.6,0.6l-0.6,7
	c-0.3,2.9,4.2,6,4.2,6V18h-1.7c-0.9,0-1.7,0.7-1.7,1.7c0,0.2,0.2,0.3,0.3,0.3h8.7c0.2,0,0.3-0.2,0.3-0.3C57.2,18.7,56.5,18,55.5,18z
	 M49.5,2h6.2L56,5h-6.7L49.5,2z"/>
</svg>
