<svg id="Layer_1" data-name="Layer 1" xmlns="http://www.w3.org/2000/svg" viewBox="0 0 1055 555.76"><title>VanDuVin-logo-black</title><path d="M61.39,486.85,0,344.84H25.69l36.49,88.07,36.09-88.07h24.52Z" transform="translate(0 0.08)"/><path d="M175.82,344.84h23.93l53.35,137.3H229.36l-12.55-32.56H158.75L146.2,482.14H122.47ZM167.19,428h41.19l-20.6-53.55Z" transform="translate(0 0.08)"/><path d="M299.58,344.84l68.65,94.54V344.84h23.53v137.3H370.58L301.93,387.8v94.34H278.39V344.84Z" transform="translate(0 0.08)"/><rect x="552.81" y="379.36" width="21.69" height="184.36" transform="translate(1035.19 -92.03) rotate(90)"/><path d="M471.58,445.23v-100h33.17c28.64,0,49.43,21,49.43,50s-20.79,50-49.43,50ZM505,424.72c18.1,0,27.56-14.82,27.56-29.46S523.12,365.8,505,365.8H492.91v58.92Z" transform="translate(0 0.08)"/><path d="M616.45,446.86c-23,0-39.13-15.87-39.13-38.59v-63h21.33v61c0,7.51,2.31,20.11,17.8,20.11,11.31,0,17.8-7.33,17.8-20.11v-61h21.33v63C655.58,431,639.49,446.86,616.45,446.86Z" transform="translate(0 0.08)"/><path d="M779.06,486.85l-61.39-142h25.69l36.48,88.07,36.09-88.07h24.52Z" transform="translate(0 0.08)"/><path d="M876.71,344.84h23.54v137.3H876.71Z" transform="translate(0 0.08)"/><path d="M962.81,344.84l68.65,94.54V344.84H1055v137.3h-21.18L965.17,387.8v94.34H941.63V344.84Z" transform="translate(0 0.08)"/><path d="M527.5,279.22,414.23-.08H436l91.94,230.81L619.83-.08h20.94Z" transform="translate(0 0.08)"/><path d="M527.5,116.07,477.32,0h21l29.82,72,29.5-72h20Z" transform="translate(0 0.08)"/><path d="M172.56,531.73a10.67,10.67,0,0,0-8.1-3.44c-6.39,0-10.76,5.59-10.76,11.85S158.07,552,164.46,552a11.62,11.62,0,0,0,8.48-3.91l2.4,2.44a15,15,0,0,1-10.88,4.83c-8.49,0-14.54-6.72-14.54-15.2s6.05-15.21,14.54-15.21A14.12,14.12,0,0,1,175,529.42Z" transform="translate(0 0.08)"/><path d="M200.66,525.43h3.28l11.46,29.41h-3.69l-3.07-7.94H196l-3.07,7.94h-3.78Zm-3.4,18.11h10.08l-5-13.07Z" transform="translate(0 0.08)"/><path d="M235.44,525.43,251.19,549V525.43h3.53v29.41h-3.66l-15.75-23.53v23.53h-3.53V525.43Z" transform="translate(0 0.08)"/><path d="M274.2,525.43h7.73c6.05,0,9.45,3.11,9.45,8a6.07,6.07,0,0,1-3.32,5.75c.42.08,4.92,1.39,4.92,7.23,0,5.12-3.78,8.4-9.58,8.4h-9.2Zm8.32,12.69c3.32,0,5.33-1.81,5.33-4.66s-2-4.67-5.33-4.67h-4.79v9.33Zm6.93,8.32c0-2.78-1.85-5-6.05-5h-5.67v10.08h5.67C287.6,551.48,289.45,549.21,289.45,546.44Z" transform="translate(0 0.08)"/><path d="M314,538.08h12.44v3.36H314v10h13.7v3.36H310.45V525.43h17v3.36H314Z" transform="translate(0 0.08)"/><path d="M345.89,525.43h7.65c5.84,0,9.83,3.45,9.83,8.7,0,7-6.34,8.27-7.18,8.4l8.14,12.31h-4.24l-7.94-12h-2.73v12h-3.53Zm13.95,8.7c0-3.24-2.14-5.34-6.09-5.34h-4.33v10.67h4.33C357.7,539.46,359.84,537.36,359.84,534.13Z" transform="translate(0 0.08)"/><path d="M381.72,525.43h7.64c5.84,0,9.83,3.45,9.83,8.7,0,7-6.34,8.27-7.18,8.4l8.15,12.31h-4.24l-7.94-12h-2.73v12h-3.53Zm13.95,8.7c0-3.24-2.15-5.34-6.1-5.34h-4.32v10.67h4.32C393.52,539.46,395.67,537.36,395.67,534.13Z" transform="translate(0 0.08)"/><path d="M426,525.43h3.27l11.47,29.41H437L434,546.9H421.28l-3.06,7.94h-3.78Zm-3.4,18.11h10.08l-5-13.07Z" transform="translate(0 0.08)"/><path d="M506.42,555.68,498,532.53l-8.49,23.15-11.3-30.25h3.95l7.44,20.38,7.22-20.38h2.56l7.14,20.38L514,525.43h3.74Z" transform="translate(0 0.08)"/><path d="M534.56,525.43h3.52v29.41h-3.52Z" transform="translate(0 0.08)"/><path d="M561.81,525.43,577.57,549V525.43h3.52v29.41h-3.65l-15.75-23.53v23.53h-3.53V525.43Z" transform="translate(0 0.08)"/><path d="M604.11,538.08h12.43v3.36H604.11v10H617.8v3.36H600.58V525.43h17v3.36H604.11Z" transform="translate(0 0.08)"/><path d="M636,525.43h7.64c5.84,0,9.83,3.45,9.83,8.7,0,7-6.34,8.27-7.18,8.4l8.15,12.31h-4.24l-7.94-12h-2.73v12H636Zm13.94,8.7c0-3.24-2.14-5.34-6.09-5.34h-4.32v10.67h4.32C647.83,539.46,650,537.36,650,534.13Z" transform="translate(0 0.08)"/><path d="M678.15,543.29l-9.91-17.86h4l7.9,14.45,7.77-14.45h3.74l-9.92,17.86v11.55h-3.53Z" transform="translate(0 0.08)"/><path d="M738.09,528.79h-8.45v-3.36h20.42v3.36h-8.44v26.05h-3.53Z" transform="translate(0 0.08)"/><path d="M793,540.14c0,8.48-6,15.2-14.54,15.2s-14.53-6.72-14.53-15.2,6.05-15.21,14.53-15.21S793,531.65,793,540.14Zm-3.78,0c0-6.26-4.33-11.85-10.76-11.85s-10.75,5.59-10.75,11.85S772,552,778.45,552,789.21,546.39,789.21,540.14Z" transform="translate(0 0.08)"/><path d="M828.52,525.43H832V544c0,6.68-4,11.34-10.71,11.34s-10.71-4.66-10.71-11.34V525.43h3.53v18.19c0,4.75,2.1,8.36,7.18,8.36s7.19-3.61,7.19-8.36Z" transform="translate(0 0.08)"/><path d="M851.53,525.43h7.64c5.84,0,9.83,3.45,9.83,8.7,0,7-6.34,8.27-7.18,8.4L870,554.84h-4.24l-7.94-12h-2.73v12h-3.53Zm13.94,8.7c0-3.24-2.14-5.34-6.09-5.34h-4.32v10.67h4.32C863.33,539.46,865.47,537.36,865.47,534.13Z" transform="translate(0 0.08)"/><path d="M895.17,541.6c-4.29-2-8.07-3.94-8.07-8.94,0-3.45,2.86-7.73,8.49-7.73a10.48,10.48,0,0,1,8.36,4.28l-2.65,2.14a7.41,7.41,0,0,0-5.71-3.06c-3.24,0-5,2.27-5,4.37,0,3,2.52,4.16,6.55,6,4.5,2.06,7.31,4,7.31,8.7s-4,8-9.11,8a10.22,10.22,0,0,1-9.37-6.13l2.94-1.77s1.77,4.54,6.43,4.54c2.81,0,5.5-1.6,5.5-4.62S898.44,543.12,895.17,541.6Z" transform="translate(0 0.08)"/></svg>