<?xml version="1.0" encoding="utf-8"?>
<!-- Generator: Adobe Illustrator 24.1.0, SVG Export Plug-In . SVG Version: 6.00 Build 0)  -->
<svg version="1.1" id="Layer_1" xmlns="http://www.w3.org/2000/svg" xmlns:xlink="http://www.w3.org/1999/xlink" x="0px" y="0px"
	 viewBox="0 0 1055 215.2" style="enable-background:new 0 0 1055 215.2;" xml:space="preserve">
<path d="M61.4,146.4L0,4.4h25.7l36.5,88.1L98.3,4.4h24.5L61.4,146.4z"/>
<path d="M175.8,4.4h23.9l53.4,137.3h-23.7l-12.6-32.6h-58.1l-12.6,32.6h-23.7L175.8,4.4z M167.2,87.5h41.2L187.8,34L167.2,87.5z"/>
<path d="M299.6,4.4l68.6,94.5V4.4h23.5v137.3h-21.2l-68.6-94.3v94.3h-23.5V4.4H299.6z"/>
<rect x="471.5" y="120.2" width="184.4" height="21.7"/>
<path d="M471.6,104.8V4.8h33.2c28.6,0,49.4,21,49.4,50s-20.8,50-49.4,50H471.6z M505,84.2c18.1,0,27.6-14.8,27.6-29.5
	s-9.4-29.5-27.6-29.5h-12.1v58.9L505,84.2z"/>
<path d="M616.5,106.4c-23,0-39.1-15.9-39.1-38.6v-63h21.3v61c0,7.5,2.3,20.1,17.8,20.1c11.3,0,17.8-7.3,17.8-20.1v-61h21.3v63
	C655.6,90.5,639.5,106.4,616.5,106.4z"/>
<path d="M779.1,146.4l-61.4-142h25.7l36.5,88.1l36.1-88.1h24.5L779.1,146.4z"/>
<path d="M876.7,4.4h23.5v137.3h-23.5V4.4z"/>
<path d="M962.8,4.4l68.6,94.5V4.4h23.5v137.3h-21.2l-68.6-94.3v94.3h-23.5V4.4H962.8z"/>
<path d="M172.6,191.3c-2.1-2.3-5-3.5-8.1-3.4c-6.4,0-10.8,5.6-10.8,11.8s4.4,11.9,10.8,11.9c3.2-0.1,6.3-1.5,8.5-3.9l2.4,2.4
	c-2.8,3-6.7,4.8-10.9,4.8c-8.5,0-14.5-6.7-14.5-15.2s6.1-15.2,14.5-15.2c4-0.1,7.8,1.6,10.5,4.5L172.6,191.3z"/>
<path d="M200.7,185h3.3l11.5,29.4h-3.7l-3.1-7.9H196l-3.1,7.9h-3.8L200.7,185z M197.3,203.1h10.1l-5-13.1L197.3,203.1z"/>
<path d="M235.4,185l15.8,23.6V185h3.5v29.4h-3.7l-15.8-23.5v23.5h-3.5V185H235.4z"/>
<path d="M274.2,185h7.7c6,0,9.5,3.1,9.5,8c0.1,2.4-1.2,4.7-3.3,5.8c0.4,0.1,4.9,1.4,4.9,7.2c0,5.1-3.8,8.4-9.6,8.4h-9.2L274.2,185z
	 M282.5,197.6c3.3,0,5.3-1.8,5.3-4.7s-2-4.7-5.3-4.7h-4.8v9.3L282.5,197.6z M289.5,206c0-2.8-1.9-5-6-5h-5.7V211h5.7
	C287.6,211,289.5,208.7,289.5,206z"/>
<path d="M314,197.6h12.4v3.4H314v10h13.7v3.4h-17.2V185h17v3.4H314V197.6z"/>
<path d="M345.9,185h7.6c5.8,0,9.8,3.5,9.8,8.7c0,7-6.3,8.3-7.2,8.4l8.1,12.3h-4.2l-7.9-12h-2.7v12h-3.5V185z M359.8,193.7
	c0-3.2-2.1-5.3-6.1-5.3h-4.3V199h4.3C357.7,199,359.8,196.9,359.8,193.7L359.8,193.7z"/>
<path d="M381.7,185h7.6c5.8,0,9.8,3.5,9.8,8.7c0,7-6.3,8.3-7.2,8.4l8.1,12.3h-4.2l-7.9-12h-2.7v12h-3.5V185z M395.7,193.7
	c0-3.2-2.1-5.3-6.1-5.3h-4.3V199h4.3C393.5,199,395.7,196.9,395.7,193.7z"/>
<path d="M426,185h3.3l11.5,29.4H437l-3-7.9h-12.7l-3.1,7.9h-3.8L426,185z M422.6,203.1h10.1l-5-13.1L422.6,203.1z"/>
<path d="M506.4,215.2l-8.4-23.1l-8.5,23.2L478.2,185h4l7.4,20.4l7.2-20.4h2.6l7.1,20.4L514,185h3.7L506.4,215.2z"/>
<path d="M534.6,185h3.5v29.4h-3.5V185z"/>
<path d="M561.8,185l15.8,23.6V185h3.5v29.4h-3.7l-15.8-23.5v23.5h-3.5V185H561.8z"/>
<path d="M604.1,197.6h12.4v3.4h-12.4v10h13.7v3.4h-17.2V185h17v3.4h-13.5V197.6z"/>
<path d="M636,185h7.6c5.8,0,9.8,3.5,9.8,8.7c0,7-6.3,8.3-7.2,8.4l8.2,12.3h-4.2l-7.9-12h-2.7v12H636V185z M649.9,193.7
	c0-3.2-2.1-5.3-6.1-5.3h-4.3V199h4.3C647.8,199,650,196.9,649.9,193.7L649.9,193.7z"/>
<path d="M678.2,202.8l-9.9-17.9h4l7.9,14.5l7.8-14.5h3.7l-9.9,17.9v11.5h-3.5L678.2,202.8z"/>
<path d="M738.1,188.3h-8.5V185h20.4v3.4h-8.4v26h-3.5L738.1,188.3z"/>
<path d="M793,199.7c0,8.5-6,15.2-14.5,15.2s-14.5-6.7-14.5-15.2s6-15.2,14.5-15.2S793,191.2,793,199.7z M789.2,199.7
	c0-6.3-4.3-11.8-10.8-11.8s-10.8,5.6-10.8,11.8s4.3,11.9,10.7,11.9S789.2,205.9,789.2,199.7L789.2,199.7z"/>
<path d="M828.5,185h3.5v18.6c0,6.7-4,11.3-10.7,11.3s-10.7-4.7-10.7-11.3V185h3.5v18.2c0,4.8,2.1,8.4,7.2,8.4s7.2-3.6,7.2-8.4
	L828.5,185z"/>
<path d="M851.5,185h7.6c5.8,0,9.8,3.5,9.8,8.7c0,7-6.3,8.3-7.2,8.4l8.2,12.3h-4.2l-7.9-12h-2.7v12h-3.5L851.5,185z M865.5,193.7
	c0-3.2-2.1-5.3-6.1-5.3h-4.3V199h4.3C863.3,199,865.5,196.9,865.5,193.7L865.5,193.7z"/>
<path d="M895.2,201.1c-4.3-2-8.1-3.9-8.1-8.9c0-3.5,2.9-7.7,8.5-7.7c3.3,0,6.4,1.6,8.4,4.3l-2.7,2.1c-1.3-1.8-3.4-3-5.7-3.1
	c-3.2,0-5,2.3-5,4.4c0,3,2.5,4.2,6.5,6c4.5,2.1,7.3,4,7.3,8.7s-4,8-9.1,8c-4.1,0-7.7-2.4-9.4-6.1l2.9-1.8c0,0,1.8,4.5,6.4,4.5
	c2.8,0,5.5-1.6,5.5-4.6S898.4,202.6,895.2,201.1z"/>
</svg>
